<svg xmlns="http://www.w3.org/2000/svg" width="16" height="14.601" viewBox="0 0 4.233 3.863"><path fill="#e0e0e0" d="M2.125 0c-.311-.001-.624.082-.89.238h-.93C.031.233-.013.515.003.723v2.836c-.004.274.278.318.485.302h3.439c.224.007.329-.223.302-.416V1.445c.007-.224-.223-.329-.416-.302h-.246C3.552.632 3.118.228 2.654.083A1.71 1.71 0 0 0 2.125 0z"/><path d="M2.125.183C1.718.183.882.336.894 1.349c.001.072.064.13.136.13h.395c.035 0 .07-.027.084-.059.056-.13.175-.284.31-.378a.51.51 0 0 1 .494-.073c.226.076.211.398.082.498l-.405.297c-.068.058-.128.12-.174.17a.79.79 0 0 0-.145.232c-.035.106-.041.211-.035.324.003.062.059.112.121.112H2.4c.062 0 .107-.05.113-.112.026-.24.208-.346.395-.469.119-.079.295-.236.363-.362.032-.059.057-.121.077-.185.041-.137.049-.375.007-.512-.14-.447-.637-.778-1.23-.778zm-.479 2.758v.537c0 .091.074.165.165.165h.537c.091 0 .165-.074.165-.165v-.537c0-.091-.074-.165-.165-.165H1.81c-.091 0-.165.074-.165.165z"/></svg>
